<?xml version="1.0" standalone="no"?>
<!DOCTYPE svg PUBLIC "-//W3C//DTD SVG 20010904//EN"
 "http://www.w3.org/TR/2001/REC-SVG-20010904/DTD/svg10.dtd">
<svg version="1.0" xmlns="http://www.w3.org/2000/svg"
 width="100.000000pt" height="100.000000pt" viewBox="0 0 100.000000 100.000000"
 preserveAspectRatio="xMidYMid meet">

<g transform="translate(0.000000,100.000000) scale(0.100000,-0.100000)"
fill="#00d4ff" stroke="none">
<path d="M426 909 c-166 -27 -309 -175 -337 -348 -35 -219 125 -435 349 -471
221 -36 436 123 473 349 35 218 -124 435 -346 471 -67 11 -70 11 -139 -1z
m224 -90 c70 -33 136 -99 169 -169 22 -47 26 -69 26 -150 0 -81 -4 -103 -26
-150 -33 -70 -99 -136 -169 -169 -47 -22 -69 -26 -150 -26 -81 0 -103 4 -150
26 -120 57 -192 167 -198 304 -7 157 71 281 216 342 79 33 202 30 282 -8z"/>
<path d="M483 703 c-9 -3 -13 -31 -13 -89 l0 -84 -84 0 c-65 0 -85 -3 -90 -15
-14 -37 3 -45 90 -45 l84 0 0 -84 c0 -87 8 -104 45 -90 12 5 15 25 15 90 l0
84 84 0 c87 0 104 8 90 45 -5 12 -25 15 -90 15 l-84 0 0 84 c0 67 -3 85 -16
90 -9 3 -16 6 -17 5 -1 0 -8 -3 -14 -6z"/>
</g>
</svg>
